<?xml version="1.0" encoding="utf-8"?>
<!-- Uploaded to: SVG Repo, www.svgrepo.com, Generator: SVG Repo Mixer Tools -->
<svg version="1.1" id="Uploaded to svgrepo.com" xmlns="http://www.w3.org/2000/svg" xmlns:xlink="http://www.w3.org/1999/xlink" 
	 width="800px" height="800px" viewBox="0 0 64 64" xml:space="preserve">
<style type="text/css">
	.fandom_drie{fill:#BE9148;}
	.fandom_vier{fill:#FFC865;}
	.fandom_vijf{fill:#018273;}
	.fandom_zes{fill:#00B3AA;}
	.fandom_vijftien{fill:#3A3A3A;}
	.fandom_zestien{fill:#4D4D4D;}
	.fandom_achttien{fill:#808080;}
	.fandom_negentien{fill:#CCCCCC;}
	.st0{fill:#FF786E;}
	.st1{fill:#BE5652;}
	.st2{fill:#EFEAE0;}
	.st3{fill:#AA9991;}
	.st4{fill:#FFFAFA;}
	.st5{fill:#644638;}
	.st6{fill:#6BC4D2;}
	.st7{fill:#508D9B;}
	.st8{fill:#4B322A;}
	.st9{fill:#8579A3;}
	.st10{fill:#685683;}
	.st11{fill:#666666;}
</style>
<g>
	<g>
		<path class="fandom_zes" d="M32,7C18.193,7,7,18.193,7,32h50C57,18.193,45.807,7,32,7z"/>
		<path class="fandom_vijf" d="M32,57c13.807,0,25-11.193,25-25H7C7,45.807,18.193,57,32,57z"/>
	</g>
	<g>
		<path class="fandom_drie" d="M51.515,6.253l-7.224-4.475c-0.501-0.31-1.152-0.211-1.538,0.234L31.302,15.218
			c-0.366,0.422-0.392,1.041-0.063,1.493l4.718,6.47l-0.584,0.584l1.784,1.229c0.116,0.08,0.217,0.179,0.298,0.294l1.368,1.928
			l0.597-0.571l6.316,4.568c0.451,0.326,1.068,0.299,1.489-0.066l13.201-11.445c0.449-0.389,0.545-1.049,0.227-1.55L56.12,11.02
			c-0.3-0.472-0.234-1.088,0.158-1.486c0.608-0.617,0.537-1.328,0.089-1.78l-1.664-1.677c-0.466-0.47-1.226-0.473-1.696-0.007
			C52.573,6.5,51.966,6.532,51.515,6.253z M37.429,15.485l6.288-7.253c0.379-0.437,1.016-0.541,1.514-0.248l5.63,3.31
			c0.178,0.105,0.326,0.254,0.43,0.433l3.179,5.489c0.288,0.498,0.183,1.131-0.252,1.508l-7.261,6.295
			c-0.42,0.364-1.036,0.392-1.487,0.067l-2.694-1.959l-3.314-3.289l-2.098-2.862C37.037,16.525,37.063,15.907,37.429,15.485z"/>
		<path class="fandom_vier" d="M10.416,34.603l0.072,0.974c0.024,0.328,0.208,0.624,0.493,0.79l0.843,0.493
			c0.716,0.418,0.641,1.476-0.127,1.789l-0.904,0.37c-0.305,0.124-0.529,0.391-0.599,0.712l-0.208,0.955
			c-0.177,0.81-1.205,1.065-1.741,0.433l-0.631-0.746c-0.213-0.251-0.535-0.382-0.863-0.349L5.78,40.12
			c-0.825,0.082-1.386-0.817-0.949-1.522l0.515-0.831c0.173-0.28,0.198-0.627,0.066-0.928l-0.393-0.895
			c-0.333-0.759,0.349-1.57,1.154-1.373l0.949,0.233c0.32,0.078,0.657-0.006,0.903-0.224l0.73-0.65
			C9.373,33.379,10.355,33.777,10.416,34.603z M39.463,19.839c-0.046-0.045-0.088-0.094-0.126-0.147l-1.972-2.716
			c-0.328-0.451-0.301-1.069,0.064-1.491l6.288-7.253c0.379-0.437,1.016-0.542,1.515-0.248l5.63,3.31
			c0.037,0.022,0.067,0.053,0.101,0.079l4.515-4.515l-0.775-0.781c-0.466-0.47-1.226-0.473-1.696-0.007
			c-0.432,0.428-1.039,0.463-1.492,0.183l-7.224-4.475c-0.501-0.31-1.152-0.211-1.538,0.234L31.302,15.218
			c-0.366,0.422-0.392,1.041-0.063,1.493l4.718,6.47l-0.584,0.584l1.784,1.229c0.036,0.025,0.06,0.063,0.093,0.092l3.735-3.735
			L39.463,19.839z"/>
		<path class="fandom_zestien" d="M61.806,28.118c-1.274,3.637-3.226,7.237-6.328,9.629c-2.498,1.926-5.518,2.726-8.644,2.726
			c-5.857,0.001-11.565-2.561-16.624-5.3c-4.722-2.557-9.461-7.374-15.231-4.762c-1.995,0.903-3.437,2.588-4.544,4.444l-0.019-0.251
			c-0.061-0.827-1.043-1.224-1.662-0.673l-0.296,0.264c1.36-2.046,3.057-4.677,6.397-5.912c6.34-2.343,11.267,2.113,15.413,4.621
			c6.106,3.693,16.055,7.746,22.532,4.202c3.486-1.907,5.616-5.556,6.95-9.176c1.452-3.941,2.523-8.558,1.859-12.747
			c-0.488-3.074-2.177-5.98-4.922-6.836c-0.047-0.217-0.153-0.423-0.321-0.592l-1.646-1.659c3.001-0.704,8.153,2.946,8.939,9.306
			C64.182,19.625,63.203,24.13,61.806,28.118z M51.292,11.727c-0.105-0.181-0.255-0.33-0.43-0.433l-1.579-0.929l-9.646,9.646
			l2.898,2.876l9.638-9.638L51.292,11.727z M37.455,25.287l1.112,1.567l-2.638,2.638l-2.918-2.856l2.664-2.664l1.482,1.02
			C37.275,25.075,37.382,25.184,37.455,25.287z"/>
		<path class="fandom_vijftien" d="M42.535,22.887l-1.479-1.467l9.991-9.991c0.097,0.085,0.179,0.186,0.244,0.298l0.881,1.522
			L42.535,22.887z M37.455,25.287c-0.037-0.052-0.078-0.1-0.122-0.145l-2.877,2.877l1.473,1.473l2.638-2.638L37.455,25.287z"/>
		<path class="fandom_negentien" d="M4.062,58.458l-0.75-0.729c-0.391-0.391-0.265-1.128,0.125-1.518l29.574-29.574l1.414,1.414
			L4.062,58.458z"/>
		<path class="fandom_achttien" d="M34.457,28.02L4.066,58.455L4.78,59.17c0.391,0.391,1.024,0.391,1.414,0l0.943-0.943l2.97,2.981
			c0.391,0.391,1.024,0.391,1.414,0l0.236-0.236c0.391-0.391,0.391-1.024,0-1.414L9.72,57.52l1.423-0.16
			c0.302-0.034,0.604,0.072,0.819,0.287l0.72,0.72l0.787-0.058l0.053-0.716l-0.751-0.751c-0.223-0.223-0.328-0.538-0.283-0.85
			l0.2-1.386l1.361-0.153c0.302-0.034,0.604,0.072,0.819,0.287l0.72,0.72l0.787-0.058l0.053-0.716l-0.751-0.751
			c-0.223-0.223-0.328-0.538-0.283-0.85l0.182-1.262l1.956,1.956c0.391,0.391,1.024,0.391,1.414,0l0.236-0.236
			c0.391-0.391,0.391-1.024,0-1.414l-2.981-2.97l19.689-19.689L34.457,28.02z"/>
	</g>
</g>
</svg>