<?xml version="1.0" encoding="iso-8859-1"?>
<!-- Uploaded to: SVG Repo, www.svgrepo.com, Generator: SVG Repo Mixer Tools -->
<svg height="800px" width="800px" version="1.1" id="Layer_1" xmlns="http://www.w3.org/2000/svg" xmlns:xlink="http://www.w3.org/1999/xlink" 
	 viewBox="0 0 512 512" xml:space="preserve">
<path style="fill:#2633D8;" d="M198.271,336.495H256h57.729c-1.915-5.399-2.967-11.203-2.967-17.249s1.052-11.85,2.967-17.249
	h-40.48v-57.497h-34.498v57.497h-40.48c1.915,5.399,2.967,11.203,2.967,17.249S200.186,331.096,198.271,336.495z"/>
<path style="fill:#EFC27B;" d="M256,0c-28.534,0-51.747,23.214-51.747,51.747s23.213,51.747,51.747,51.747
	c28.533,0,51.747-23.214,51.747-51.747S284.534,0,256,0z"/>
<path style="fill:#5286FA;" d="M256,137.992c-49.219,0-89.261,40.042-89.261,89.26c0,9.526,7.723,17.249,17.249,17.249h54.763H256
	h17.249h54.762c9.526,0,17.249-7.723,17.249-17.249C345.26,178.034,305.218,137.992,256,137.992z"/>
<path style="fill:#ECB45C;" d="M204.253,51.747c0,28.533,23.213,51.747,51.747,51.747V0C227.467,0,204.253,23.214,204.253,51.747z"
	/>
<path style="fill:#3D6DEB;" d="M166.739,227.252c0,9.526,7.723,17.249,17.249,17.249h54.763H256V137.992
	C206.781,137.992,166.739,178.034,166.739,227.252z"/>
<path style="fill:#EFC27B;" d="M198.271,301.997c-7.12-20.076-26.293-34.498-48.78-34.498c-28.533,0-51.747,23.214-51.747,51.747
	c0,28.533,23.214,51.747,51.747,51.747c22.487,0,41.66-14.422,48.78-34.498c1.915-5.399,2.967-11.203,2.967-17.249
	S200.186,307.396,198.271,301.997z"/>
<path style="fill:#00E7F0;" d="M149.491,405.491c-49.219,0-89.261,40.042-89.261,89.26c0,9.526,7.723,17.249,17.249,17.249h72.012
	h72.011c9.526,0,17.249-7.723,17.249-17.249C238.751,445.533,198.709,405.491,149.491,405.491z"/>
<path style="fill:#ECB45C;" d="M97.744,319.246c0,28.533,23.214,51.747,51.747,51.747V267.499
	C120.958,267.499,97.744,290.713,97.744,319.246z"/>
<path style="fill:#00D7DF;" d="M60.23,494.751c0,9.526,7.723,17.249,17.249,17.249h72.012V405.491
	C100.272,405.491,60.23,445.533,60.23,494.751z"/>
<path style="fill:#EFC27B;" d="M362.509,267.499c-22.487,0-41.66,14.422-48.78,34.498c-1.915,5.399-2.967,11.203-2.967,17.249
	s1.052,11.85,2.967,17.249c7.12,20.076,26.293,34.498,48.78,34.498c28.533,0,51.747-23.214,51.747-51.747
	S391.043,267.499,362.509,267.499z"/>
<path style="fill:#00E7F0;" d="M362.509,405.491c-49.218,0-89.26,40.042-89.26,89.26c0,9.526,7.723,17.249,17.249,17.249h72.011
	h72.012c9.526,0,17.249-7.723,17.249-17.249C451.77,445.533,411.728,405.491,362.509,405.491z"/>
<path style="fill:#ECB45C;" d="M313.729,301.997c-1.915,5.399-2.967,11.203-2.967,17.249s1.052,11.85,2.967,17.249
	c7.12,20.076,26.293,34.498,48.78,34.498V267.499C340.022,267.499,320.85,281.922,313.729,301.997z"/>
<path style="fill:#00D7DF;" d="M273.249,494.751c0,9.526,7.723,17.249,17.249,17.249h72.011V405.491
	C313.291,405.491,273.249,445.533,273.249,494.751z"/>
</svg>